<svg xmlns="http://www.w3.org/2000/svg" width="192" height="192" viewBox="0 0 192 192">
  <defs>
    <linearGradient id="bg" x1="0" y1="0" x2="1" y2="1">
      <stop offset="0%" stop-color="#1a0f08"/>
      <stop offset="100%" stop-color="#0d0906"/>
    </linearGradient>
    <linearGradient id="cover" x1="0" y1="0" x2="0" y2="1">
      <stop offset="0%" stop-color="#a06830"/>
      <stop offset="100%" stop-color="#7a4820"/>
    </linearGradient>
    <linearGradient id="page" x1="0" y1="0" x2="0" y2="1">
      <stop offset="0%" stop-color="#faf6ef"/>
      <stop offset="100%" stop-color="#f0e8d8"/>
    </linearGradient>
  </defs>

  <!-- Background -->
  <rect width="192" height="192" rx="36" fill="url(#bg)"/>

  <!-- Book shadow -->
  <rect x="52" y="38" width="96" height="128" rx="6" fill="#000" opacity="0.3"/>

  <!-- Book cover -->
  <rect x="48" y="34" width="96" height="128" rx="6" fill="url(#cover)"/>

  <!-- Spine detail -->
  <rect x="48" y="34" width="12" height="128" rx="6" fill="#6a3e18"/>
  <rect x="56" y="34" width="4" height="128" fill="#5a3414" opacity="0.5"/>

  <!-- Pages -->
  <rect x="64" y="42" width="72" height="112" rx="3" fill="url(#page)"/>

  <!-- Page edge detail -->
  <rect x="64" y="42" width="72" height="4" rx="2" fill="#e8dcc8"/>

  <!-- Text lines -->
  <rect x="74" y="60" width="52" height="3.5" rx="1.75" fill="#c9a66b" opacity="0.8"/>
  <rect x="74" y="72" width="44" height="3" rx="1.5" fill="#c9a66b" opacity="0.6"/>
  <rect x="74" y="82" width="52" height="3" rx="1.5" fill="#c9a66b" opacity="0.6"/>
  <rect x="74" y="92" width="38" height="3" rx="1.5" fill="#c9a66b" opacity="0.6"/>
  <rect x="74" y="102" width="48" height="3" rx="1.5" fill="#c9a66b" opacity="0.6"/>
  <rect x="74" y="112" width="32" height="3" rx="1.5" fill="#c9a66b" opacity="0.6"/>
  <rect x="74" y="122" width="52" height="3" rx="1.5" fill="#c9a66b" opacity="0.6"/>
  <rect x="74" y="132" width="40" height="3" rx="1.5" fill="#c9a66b" opacity="0.6"/>

  <!-- Bookmark -->
  <path d="M128 34 L128 58 L132 52 L136 58 L136 34 Z" fill="#d4763a" opacity="0.9"/>
</svg>
