<svg xmlns="http://www.w3.org/2000/svg" width="32" height="32" viewBox="0 0 32 32">
  <defs>
    <linearGradient id="bg" x1="0" y1="0" x2="1" y2="1">
      <stop offset="0%" stop-color="#1a0f08"/>
      <stop offset="100%" stop-color="#0d0906"/>
    </linearGradient>
    <linearGradient id="cover" x1="0" y1="0" x2="0" y2="1">
      <stop offset="0%" stop-color="#a06830"/>
      <stop offset="100%" stop-color="#7a4820"/>
    </linearGradient>
  </defs>
  <rect width="32" height="32" rx="7" fill="url(#bg)"/>
  <rect x="8" y="5" width="16" height="22" rx="2" fill="url(#cover)"/>
  <rect x="8" y="5" width="3" height="22" rx="2" fill="#6a3e18"/>
  <rect x="13" y="7" width="10" height="18" rx="1" fill="#f5f0e8"/>
  <rect x="15" y="7" width="7" height="1" rx="0.5" fill="#c9a66b" opacity="0.8"/>
  <rect x="15" y="10" width="6" height="1" rx="0.5" fill="#c9a66b" opacity="0.5"/>
  <rect x="15" y="13" width="7" height="1" rx="0.5" fill="#c9a66b" opacity="0.5"/>
  <rect x="15" y="16" width="5" height="1" rx="0.5" fill="#c9a66b" opacity="0.5"/>
  <rect x="15" y="19" width="6" height="1" rx="0.5" fill="#c9a66b" opacity="0.5"/>
  <path d="M22 5 L22 11 L23 9.5 L24 11 L24 5 Z" fill="#d4763a"/>
</svg>
